<?xml version="1.0" ?><svg height="1024" preserveAspectRatio="xMidYMid meet" width="1024" xmlns="http://www.w3.org/2000/svg"><g><title/><rect fill="none" height="1026" id="canvas_background" width="1026" x="-1" y="-1"/></g><g><title/><g fill="#000000" id="svg_1" transform="translate(0,1024) scale(0.10000000149011612,-0.10000000149011612) "><path d="m4886,9439c-1484,-85 -2798,-907 -3541,-2214c-535,-942 -689,-2103 -420,-3175c387,-1540 1605,-2758 3145,-3145c694,-174 1426,-174 2120,0c1540,387 2758,1605 3145,3145c174,694 174,1426 0,2120c-435,1732 -1909,3032 -3680,3244c-267,32 -509,40 -769,25zm1114,-2038c0,-70 -98,-130 -296,-181c-65,-17 -167,-35 -226,-41c-96,-8 -158,-21 -158,-33c0,-2 20,-16 43,-30c249,-145 347,-387 348,-859c1,-428 -97,-675 -377,-952c-185,-182 -254,-277 -254,-347c0,-68 53,-134 314,-393c326,-323 434,-463 529,-687c56,-129 77,-238 77,-398c0,-442 -155,-781 -463,-1010c-212,-158 -541,-284 -847,-326c-174,-23 -493,-21 -643,5c-219,38 -470,113 -608,181c-274,135 -452,397 -500,739c-17,122 -7,355 21,456c73,273 251,486 515,618c211,105 772,227 1047,227c32,0 58,3 58,6c0,3 -14,25 -30,50c-94,136 -154,323 -148,460l3,84l-105,0c-244,0 -479,71 -675,203c-215,146 -343,367 -390,677c-20,126 -19,373 0,486c58,333 243,631 497,803c219,146 483,250 713,280c39,4 404,9 813,10l742,1l0,-29zm1422,-1588l3,-448l453,-3l452,-2l0,-285l0,-285l-452,-2c-394,-3 -453,-5 -454,-18c-1,-8 -2,-212 -3,-452l-1,-438l-285,0l-285,0l0,455l0,455l-450,0l-450,0l0,285l0,285l450,0l450,0l0,450l0,450l285,0l285,0l2,-447z" fill="#dd4b39" id="svg_2"/><path d="m4270,7044c-199,-39 -355,-218 -404,-464c-39,-190 -31,-411 20,-588c53,-184 148,-348 273,-472c236,-235 516,-263 722,-73c183,170 282,496 238,786c-26,174 -109,394 -197,524c-87,127 -232,231 -377,268c-62,16 -230,27 -275,19z" fill="#dd4b39" id="svg_3"/><path d="m4375,4079c-284,-36 -612,-237 -744,-454c-112,-185 -127,-411 -39,-590c33,-66 98,-144 159,-191c266,-204 675,-275 1059,-183c183,43 317,116 440,239c138,138 190,259 190,446c0,403 -291,690 -746,734c-117,11 -223,11 -319,-1z" fill="#dd4b39" id="svg_4"/></g></g></svg>